<svg width="16" height="16" viewBox="0 0 16 16" fill="none" xmlns="http://www.w3.org/2000/svg">
<path fill-rule="evenodd" clip-rule="evenodd" d="M1 8.00051C1 8.13312 1.05268 8.26029 1.14645 8.35406C1.24021 8.44783 1.36739 8.50051 1.5 8.50051H13.293L10.146 11.6465C10.0521 11.7404 9.99937 11.8677 9.99937 12.0005C9.99937 12.1333 10.0521 12.2606 10.146 12.3545C10.2399 12.4484 10.3672 12.5011 10.5 12.5011C10.6328 12.5011 10.7601 12.4484 10.854 12.3545L14.854 8.35451C14.9006 8.30806 14.9375 8.25289 14.9627 8.19214C14.9879 8.1314 15.0009 8.06628 15.0009 8.00051C15.0009 7.93474 14.9879 7.86962 14.9627 7.80888C14.9375 7.74813 14.9006 7.69295 14.854 7.64651L10.854 3.64651C10.7601 3.55262 10.6328 3.49988 10.5 3.49988C10.3672 3.49988 10.2399 3.55262 10.146 3.64651C10.0521 3.7404 9.99937 3.86773 9.99937 4.00051C9.99937 4.13329 10.0521 4.26062 10.146 4.35451L13.293 7.50051L1.5 7.50051C1.36739 7.50051 1.24021 7.55319 1.14645 7.64696C1.05268 7.74072 1 7.8679 1 8.00051V8.00051Z" fill="white"/>
</svg>
